<?xml version="1.0" encoding="UTF-8" standalone="no"?>
<!-- Created with Inkscape (http://www.inkscape.org/) -->

<svg
   xmlns:dc="http://purl.org/dc/elements/1.1/"
   xmlns:cc="http://creativecommons.org/ns#"
   xmlns:rdf="http://www.w3.org/1999/02/22-rdf-syntax-ns#"
   xmlns:svg="http://www.w3.org/2000/svg"
   xmlns="http://www.w3.org/2000/svg"
   xmlns:sodipodi="http://sodipodi.sourceforge.net/DTD/sodipodi-0.dtd"
   xmlns:inkscape="http://www.inkscape.org/namespaces/inkscape"
   version="1.1"
   id="svg2"
   xml:space="preserve"
   width="387.56"
   height="298.10666"
   viewBox="0 0 387.56 298.10666"
   sodipodi:docname="uc-logo.svg"
   enable-background="new"
   inkscape:version="0.92.3 (2405546, 2018-03-11)"
   inkscape:export-filename="/media/dan/DATA/Documents/Projects/nz-dev/website/www/img/icon/uc-logo.png"
   inkscape:export-xdpi="45.545132"
   inkscape:export-ydpi="45.545132"><metadata
     id="metadata8"><rdf:RDF><cc:Work
         rdf:about=""><dc:format>image/svg+xml</dc:format><dc:type
           rdf:resource="http://purl.org/dc/dcmitype/StillImage" /><dc:title /></cc:Work></rdf:RDF></metadata><defs
     id="defs6" /><sodipodi:namedview
     pagecolor="#ffffff"
     bordercolor="#666666"
     borderopacity="1"
     objecttolerance="10"
     gridtolerance="10"
     guidetolerance="10"
     inkscape:pageopacity="0"
     inkscape:pageshadow="2"
     inkscape:window-width="1920"
     inkscape:window-height="1025"
     id="namedview4"
     showgrid="false"
     inkscape:zoom="1.5833259"
     inkscape:cx="47.633503"
     inkscape:cy="116.21107"
     inkscape:window-x="0"
     inkscape:window-y="27"
     inkscape:window-maximized="1"
     inkscape:current-layer="g10" /><g
     inkscape:groupmode="layer"
     id="layer1"
     inkscape:label="ink_ext_XXXXXX 1"
     style="display:inline"><circle
       style="opacity:1;fill:#cc0011;fill-opacity:1;fill-rule:evenodd;stroke:#000000;stroke-width:0;stroke-linecap:round;stroke-linejoin:round;stroke-miterlimit:4;stroke-dasharray:none;stroke-opacity:0"
       id="path1294"
       cx="149.52702"
       cy="147.31648"
       r="134.89915"
       inkscape:export-xdpi="45.545132"
       inkscape:export-ydpi="45.545132" /></g><g
     id="g10"
     inkscape:groupmode="layer"
     inkscape:label="ink_ext_XXXXXX"
     transform="matrix(1.3333333,0,0,-1.3333333,0,298.10667)"
     style="display:inline;opacity:0.98000004;"><g
       style="fill:#ffffff"
       id="g1361"
       transform="matrix(1.2283153,0,0,1.2283153,-48.140982,-93.978617)"><path
         d="m 134.09035,196.15014 c -5.65509,-0.0858 -7.13364,-2.17499 -7.22119,-7.04629 l -0.34777,-27.92833 c -0.17389,-12.70279 -5.4814,-25.49204 -24.62128,-25.49204 -16.096429,0 -28.362619,6.96111 -28.362619,25.5785 v 27.84187 c 0,4.8713 -1.567367,6.96047 -7.221389,7.04629 v 2.61113 c 6.959955,-0.26066 9.917064,-0.26066 12.701508,-0.26066 2.784507,0 5.742833,0 12.702788,0.26066 v -2.61113 c -5.655283,-0.0858 -7.221389,-2.17499 -7.221389,-7.04629 l 0.0013,-30.01621 c 0,-13.05056 8.264626,-20.09813 18.009021,-20.09813 15.13825,0 20.5321,9.74581 20.5321,24.88425 0,4.87066 -0.0875,8.35089 -0.17388,12.17825 l -0.26144,12.61697 c -0.0875,5.21971 -1.21712,7.48116 -7.56909,7.48116 v 2.61113 c 3.21855,-0.0877 6.69974,-0.26066 9.39542,-0.26066 2.78444,0 6.26544,0.17292 9.65793,0.26066 v -2.61113"
         style="fill:#ffffff;fill-opacity:1;fill-rule:nonzero;stroke:none;stroke-width:0.06404552"
         id="path14"
         inkscape:connector-curvature="0" /><path
         d="m 194.29698,179.44707 h -2.26401 c -1.91368,12.52794 -12.52794,17.13858 -22.96736,17.13858 -11.57238,0 -22.79508,-9.13545 -22.79508,-26.01337 0,-16.35787 9.39676,-31.23372 24.44746,-31.23372 6.52559,0 16.70563,3.828 24.18679,15.65977 l 0.0429,-10.26714 c -7.24547,-6.10546 -17.70411,-9.04771 -27.01312,-9.04771 -30.10396,0 -34.54103,23.31577 -34.54103,32.80092 0,14.09257 10.00583,31.40728 37.06378,31.40728 5.48166,0 15.57395,-1.56592 23.83966,-4.87323 v -15.57138"
         style="fill:#ffffff;fill-opacity:1;fill-rule:nonzero;stroke:none;stroke-width:0.06404552"
         id="path16"
         inkscape:connector-curvature="0" /></g></g></svg>